<svg width="50" height="50" viewBox="0 0 50 50" fill="none" xmlns="http://www.w3.org/2000/svg">
<circle cx="25" cy="25" r="25" fill="#F9F9F9"/>
<path d="M24.1881 15.9052C24.4513 15.3938 24.5829 15.138 24.7586 15.0545C24.9117 14.9818 25.0882 14.9818 25.2414 15.0545C25.4171 15.138 25.5487 15.3938 25.8119 15.9052L27.4261 19.0419C27.5398 19.2627 27.5966 19.3731 27.6813 19.4467C27.756 19.5116 27.8457 19.5558 27.9417 19.5751C28.0506 19.5971 28.1703 19.5737 28.4098 19.527L31.8106 18.8639C32.3651 18.7558 32.6424 18.7018 32.8157 18.7905C32.9667 18.8677 33.0767 19.0091 33.1167 19.177C33.1625 19.3698 33.0494 19.6346 32.8231 20.1643L31.4351 23.4126C31.3374 23.6413 31.2886 23.7556 31.2852 23.8692C31.2822 23.9694 31.3043 24.0688 31.3495 24.1579C31.4007 24.2587 31.4932 24.34 31.6781 24.5027L34.3046 26.8126C34.7329 27.1892 34.947 27.3775 34.9874 27.5715C35.0226 27.7406 34.9832 27.9169 34.88 28.0535C34.7614 28.2105 34.4887 28.285 33.9433 28.434L30.5983 29.3478C30.3628 29.4122 30.2451 29.4444 30.1563 29.5126C30.0779 29.5726 30.0158 29.6524 29.976 29.744C29.9309 29.8479 29.9265 29.9726 29.9176 30.222L29.792 33.7655C29.7716 34.3432 29.7614 34.6321 29.6384 34.7854C29.5312 34.919 29.3722 34.9975 29.2035 35C29.0097 35.0028 28.7829 34.8309 28.329 34.4871L25.5459 32.3783C25.3499 32.2299 25.2519 32.1557 25.1446 32.127C25.0498 32.1017 24.9502 32.1017 24.8554 32.127C24.7481 32.1557 24.6501 32.2299 24.4541 32.3783L21.671 34.4871C21.2172 34.8309 20.9903 35.0028 20.7965 35C20.6278 34.9975 20.4687 34.919 20.3616 34.7854C20.2386 34.6321 20.2284 34.3432 20.2079 33.7655L20.0823 30.222C20.0735 29.9726 20.0691 29.8479 20.024 29.744C19.9842 29.6524 19.9221 29.5726 19.8437 29.5126C19.7549 29.4444 19.6372 29.4122 19.4017 29.3478L16.0567 28.434C15.5113 28.285 15.2386 28.2105 15.12 28.0535C15.0167 27.9169 14.9774 27.7406 15.0126 27.5715C15.053 27.3775 15.2671 27.1892 15.6954 26.8126L18.3219 24.5027C18.5068 24.34 18.5993 24.2587 18.6505 24.1579C18.6956 24.0688 18.7178 23.9694 18.7148 23.8692C18.7114 23.7556 18.6626 23.6413 18.5649 23.4126L17.1769 20.1643C16.9506 19.6346 16.8375 19.3698 16.8833 19.177C16.9232 19.0091 17.0333 18.8677 17.1843 18.7905C17.3576 18.7018 17.6349 18.7558 18.1894 18.8639L21.5903 19.527C21.8297 19.5737 21.9494 19.5971 22.0582 19.5751C22.1544 19.5558 22.2441 19.5116 22.3188 19.4467C22.4034 19.3731 22.4602 19.2627 22.5738 19.0419L24.1881 15.9052Z" stroke="#051B44" stroke-width="2" stroke-linecap="round" stroke-linejoin="round"/>
</svg>
