<svg width="22" height="23" viewBox="0 0 22 23" fill="none" xmlns="http://www.w3.org/2000/svg">
<path d="M1 7.71842H21M16.5555 12.1644L5.44445 12.1628M9.14809 16.6078L5.44445 16.6073M5.44445 1.05176V3.27398M16.5555 1.05176V3.27398M4.55555 21.0518H17.4445C18.689 21.0518 19.3114 21.0518 19.7866 20.8096C20.2048 20.5966 20.5448 20.2566 20.7578 19.8384C21 19.3631 21 18.7408 21 17.4962V6.82954C21 5.58497 21 4.96269 20.7578 4.48734C20.5448 4.06919 20.2048 3.72924 19.7866 3.51619C19.3114 3.27398 18.689 3.27398 17.4445 3.27398H4.55555C3.311 3.27398 2.68871 3.27398 2.21335 3.51619C1.79521 3.72924 1.45525 4.06919 1.24221 4.48734C1 4.96269 1 5.58497 1 6.82954V17.4962C1 18.7408 1 19.3631 1.24221 19.8384C1.45525 20.2566 1.79521 20.5966 2.21335 20.8096C2.68871 21.0518 3.31099 21.0518 4.55555 21.0518Z" stroke="white" stroke-width="2" stroke-linecap="round" stroke-linejoin="round"/>
</svg>
