<svg width="51" height="51" viewBox="0 0 51 51" fill="none" xmlns="http://www.w3.org/2000/svg">
<rect x="0.919922" y="1.16992" width="48.6601" height="48.6601" rx="7.5" fill="#EEEBFE" stroke="#574CD5"/>
<path d="M25.1954 15.4506H17.6177C16.2227 15.4506 15.0918 16.5815 15.0918 17.9765V33.1319C15.0918 34.5268 16.2227 35.6578 17.6177 35.6578H32.7731C34.1681 35.6578 35.299 34.5268 35.299 33.1319V25.5542M33.2962 21.0255L34.6675 19.6542C35.6539 18.6678 35.6539 17.0685 34.6675 16.0821C33.681 15.0957 32.0817 15.0957 31.0953 16.0821L29.7241 17.4533M33.2962 21.0255L25.6727 28.649C25.32 29.0017 24.8709 29.2421 24.3821 29.3399L20.6667 30.0829L21.4098 26.3677C21.5076 25.8787 21.7479 25.4295 22.1005 25.0769L29.7241 17.4533M33.2962 21.0255L29.7241 17.4533" stroke="#051B44" stroke-width="1.8" stroke-linecap="round" stroke-linejoin="round"/>
</svg>
