<svg width="51" height="50" viewBox="0 0 51 50" fill="none" xmlns="http://www.w3.org/2000/svg">
<rect x="0.785156" y="0.529785" width="48.9292" height="48.9292" rx="7.5" fill="white" stroke="#CDD1DB"/>
<path d="M25.1955 14.8906H17.5767C16.1741 14.8906 15.0371 16.0276 15.0371 17.4302V32.6678C15.0371 34.0702 16.1741 35.2073 17.5767 35.2073H32.8142C34.2168 35.2073 35.3538 34.0702 35.3538 32.6678V25.049M33.3402 20.4957L34.7189 19.1171C35.7106 18.1253 35.7106 16.5173 34.7189 15.5256C33.7271 14.5338 32.1191 14.5338 31.1273 15.5256L29.7487 16.9042M33.3402 20.4957L25.6753 28.1606C25.3208 28.5152 24.8693 28.7569 24.3777 28.8552L20.6423 29.6022L21.3893 25.8669C21.4877 25.3752 21.7293 24.9237 22.0838 24.5691L29.7487 16.9042M33.3402 20.4957L29.7487 16.9042" stroke="#051B44" stroke-width="1.8" stroke-linecap="round" stroke-linejoin="round"/>
</svg>
