<svg width="51" height="50" viewBox="0 0 51 50" fill="none" xmlns="http://www.w3.org/2000/svg">
<rect x="1.29102" y="0.529785" width="48.9292" height="48.9292" rx="7.5" fill="white" stroke="#CDD1DB"/>
<path d="M16.6777 18.186H34.8338M30.2948 18.186L29.9877 17.2647C29.6901 16.3718 29.5412 15.9254 29.2652 15.5953C29.0215 15.3039 28.7085 15.0783 28.3549 14.9392C27.9545 14.7817 27.484 14.7817 26.5428 14.7817H24.9687C24.0275 14.7817 23.5571 14.7817 23.1566 14.9392C22.8031 15.0783 22.49 15.3039 22.2463 15.5953C21.9703 15.9254 21.8215 16.3718 21.5239 17.2647L21.2168 18.186M32.5643 18.186V29.7605C32.5643 31.6671 32.5643 32.6203 32.1932 33.3486C31.8669 33.9892 31.3462 34.5099 30.7056 34.8363C29.9773 35.2073 29.0241 35.2073 27.1175 35.2073H24.3941C22.4875 35.2073 21.5342 35.2073 20.806 34.8363C20.1655 34.5099 19.6447 33.9892 19.3183 33.3486C18.9472 32.6203 18.9472 31.6671 18.9472 29.7605V18.186M28.0253 22.725V30.6683M23.4863 22.725V30.6683" stroke="#051B44" stroke-width="1.8" stroke-linecap="round" stroke-linejoin="round"/>
</svg>
