<svg width="51" height="51" viewBox="0 0 51 51" fill="none" xmlns="http://www.w3.org/2000/svg">
<rect x="1.42578" y="1.16992" width="48.6601" height="48.6601" rx="7.5" fill="#EEEBFE" stroke="#574CD5"/>
<path d="M16.7266 18.7282H34.7848H16.7266ZM30.2702 18.7282L29.9648 17.8118C29.6688 16.9238 29.5207 16.4798 29.2462 16.1515C29.0038 15.8616 28.6925 15.6372 28.3408 15.4989C27.9425 15.3423 27.4746 15.3423 26.5385 15.3423H24.9728C24.0368 15.3423 23.5688 15.3423 23.1705 15.4989C22.8189 15.6372 22.5075 15.8616 22.2651 16.1515C21.9906 16.4798 21.8426 16.9238 21.5466 17.8118L21.2411 18.7282M32.5275 18.7282V30.2403C32.5275 32.1366 32.5275 33.0847 32.1584 33.8091C31.8338 34.4462 31.3159 34.9641 30.6788 35.2887C29.9544 35.6578 29.0064 35.6578 27.11 35.6578H24.4013C22.505 35.6578 21.5569 35.6578 20.8326 35.2887C20.1955 34.9641 19.6775 34.4462 19.3529 33.8091C18.9838 33.0847 18.9838 32.1366 18.9838 30.2403V18.7282M28.0129 23.2428V31.1432V23.2428ZM23.4984 23.2428V31.1432V23.2428Z" fill="#EEEBFE"/>
<path d="M16.7266 18.7282H34.7848M30.2702 18.7282L29.9648 17.8118C29.6688 16.9238 29.5207 16.4798 29.2462 16.1515C29.0038 15.8616 28.6925 15.6372 28.3408 15.4989C27.9425 15.3423 27.4746 15.3423 26.5385 15.3423H24.9728C24.0368 15.3423 23.5688 15.3423 23.1705 15.4989C22.8189 15.6372 22.5075 15.8616 22.2651 16.1515C21.9906 16.4798 21.8426 16.9238 21.5466 17.8118L21.2411 18.7282M32.5275 18.7282V30.2403C32.5275 32.1366 32.5275 33.0847 32.1584 33.8091C31.8338 34.4462 31.3159 34.9641 30.6788 35.2887C29.9544 35.6578 29.0064 35.6578 27.11 35.6578H24.4013C22.505 35.6578 21.5569 35.6578 20.8326 35.2887C20.1955 34.9641 19.6775 34.4462 19.3529 33.8091C18.9838 33.0847 18.9838 32.1366 18.9838 30.2403V18.7282M28.0129 23.2428V31.1432M23.4984 23.2428V31.1432" stroke="#051B44" stroke-width="1.8" stroke-linecap="round" stroke-linejoin="round"/>
</svg>
