<svg width="107" height="23" viewBox="0 0 107 23" fill="none" xmlns="http://www.w3.org/2000/svg">
<path d="M4.4811 23H0V0H4.4811V23ZM26.5587 23H21.7654L13.131 7.85913V23H8.64993V0H13.4433L22.0776 15.157V0H26.5587V23ZM35.2087 23H30.7274V0H35.2087V11.5001L43.5463 0H48.6364L41.5635 9.70375L48.6364 23H43.5463L38.6282 13.6974L35.2087 18.3967V23ZM66.3889 23H50.7128V0H55.1941V18.3967H66.3889V23ZM85.6094 13.8098C85.6094 15.0821 85.375 16.2795 84.9069 17.4025C84.4382 18.5145 83.7982 19.4873 82.9863 20.3214C82.1744 21.1449 81.2221 21.7969 80.1289 22.2784C79.0464 22.7593 77.8858 23 76.6472 23C75.4086 23 74.2427 22.7593 73.1497 22.2784C72.0673 21.7969 71.1199 21.1449 70.308 20.3214C69.5066 19.4873 68.8716 18.5145 68.4032 17.4025C67.9348 16.2795 67.7004 15.0821 67.7004 13.8098V0H72.1662V13.8098C72.1662 14.4405 72.2806 15.0339 72.5094 15.59C72.749 16.1461 73.0715 16.6326 73.4777 17.0494C73.8834 17.4667 74.3571 17.798 74.8984 18.0441C75.45 18.2791 76.0331 18.3967 76.6472 18.3967C77.2612 18.3967 77.839 18.2791 78.3801 18.0441C78.932 17.798 79.4109 17.4667 79.8166 17.0494C80.2228 16.6326 80.5401 16.1461 80.7691 15.59C81.0085 15.0339 81.1281 14.4405 81.1281 13.8098V0H85.6094V13.8098ZM102.519 13.8098V9.20642C102.519 8.57555 102.399 7.98211 102.16 7.42608C101.931 6.85938 101.613 6.3675 101.207 5.95049C100.801 5.53347 100.323 5.20735 99.771 4.97211C99.2297 4.72618 98.6518 4.60321 98.0378 4.60321C97.4237 4.60321 96.8407 4.72618 96.2891 4.97211C95.7477 5.20735 95.2743 5.53347 94.8681 5.95049C94.4624 6.3675 94.1396 6.85938 93.9003 7.42608C93.6712 7.98211 93.5566 8.57555 93.5566 9.20642V13.8098H102.519ZM107 23H102.519V18.3967H93.5566V23H89.0913V9.20642C89.0913 7.93399 89.3254 6.74174 89.7938 5.62971C90.2622 4.50697 90.8973 3.52859 91.6987 2.69456C92.5106 1.86053 93.4579 1.20293 94.5403 0.721757C95.6333 0.240586 96.7992 0 98.0378 0C99.2764 0 100.437 0.240586 101.52 0.721757C102.612 1.20293 103.565 1.86053 104.377 2.69456C105.189 3.52859 105.829 4.50697 106.297 5.62971C106.766 6.74174 107 7.93399 107 9.20642V23Z" fill="#574CD5"/>
</svg>
