<svg width="56" height="64" viewBox="0 0 56 64" fill="none" xmlns="http://www.w3.org/2000/svg">
<path d="M47.7762 61.5921V41.7281M54.4786 48.3494L47.8697 41.7281L41.2609 48.3494M27.9431 2H12.0819C8.38066 2 6.52999 2 5.1163 2.72169C3.87275 3.35648 2.86173 4.36942 2.22814 5.61532C1.50781 7.03169 1.50781 8.88587 1.50781 12.5942V50.9979C1.50781 54.7062 1.50781 56.5605 2.22814 57.9769C2.86173 59.2227 3.87275 60.2357 5.1163 60.8704C6.52999 61.5921 8.38066 61.5921 12.0819 61.5921H34.552M27.9431 2L47.7696 21.864M27.9431 2V16.567C27.9431 18.4211 27.9431 19.3482 28.3033 20.0564C28.6202 20.6793 29.1254 21.1858 29.7473 21.5032C30.4542 21.864 31.3794 21.864 33.2302 21.864H47.7696M47.7696 21.864V28.4854" stroke="#717582" stroke-width="3" stroke-miterlimit="16" stroke-linecap="round" stroke-linejoin="round"/>
</svg>
