<svg width="24" height="22" viewBox="0 0 24 22" fill="none" xmlns="http://www.w3.org/2000/svg">
<path d="M21.7865 10.5264V18.5C21.7865 19.8807 20.6912 21 19.3399 21H4.66007C3.30883 21 2.21343 19.8807 2.21343 18.5V10.5264M6.49505 8.1875C6.49505 9.74075 5.26273 11 3.74258 11C2.32839 11 1.1633 9.91025 1.00775 8.50775C0.984291 8.2961 1.01673 8.08321 1.06935 7.87716L2.34795 2.86895C2.62899 1.76813 3.60197 1 4.71535 1H19.2846C20.398 1 21.371 1.76813 21.652 2.86895L22.9306 7.87716C22.9832 8.08321 23.0157 8.2961 22.9922 8.50775C22.8366 9.91025 21.6715 11 20.2574 11C18.7373 11 17.5049 9.74075 17.5049 8.1875M6.49505 8.1875C6.49505 9.74075 7.72737 11 9.24752 11C10.7676 11 12 9.74075 12 8.1875M6.49505 8.1875L7.10671 1M17.5049 8.1875C17.5049 9.74075 16.2726 11 14.7525 11C13.2324 11 12 9.74075 12 8.1875M17.5049 8.1875L16.8933 1M12 8.1875V1" stroke="#051B44" stroke-width="2" stroke-linecap="round" stroke-linejoin="round"/>
</svg>
